<?xml version="1.0" encoding="UTF-8"?>
<svg id="Calque_2" data-name="Calque 2" xmlns="http://www.w3.org/2000/svg" xmlns:xlink="http://www.w3.org/1999/xlink" viewBox="0 0 1781.99 693.94">
  <defs>
    <style>
      .cls-1 {
        stroke: url(#Dégradé_sans_nom_128-51);
      }

      .cls-1, .cls-2, .cls-3, .cls-4, .cls-5, .cls-6, .cls-7, .cls-8, .cls-9, .cls-10, .cls-11, .cls-12, .cls-13, .cls-14, .cls-15, .cls-16, .cls-17, .cls-18, .cls-19, .cls-20, .cls-21, .cls-22, .cls-23, .cls-24, .cls-25, .cls-26, .cls-27, .cls-28, .cls-29, .cls-30, .cls-31, .cls-32, .cls-33, .cls-34, .cls-35, .cls-36, .cls-37, .cls-38, .cls-39, .cls-40, .cls-41, .cls-42, .cls-43, .cls-44, .cls-45, .cls-46, .cls-47, .cls-48, .cls-49, .cls-50, .cls-51, .cls-52, .cls-53, .cls-54, .cls-55, .cls-56, .cls-57, .cls-58, .cls-59, .cls-60, .cls-61 {
        fill: none;
      }

      .cls-1, .cls-2, .cls-3, .cls-4, .cls-5, .cls-6, .cls-7, .cls-8, .cls-9, .cls-10, .cls-11, .cls-12, .cls-13, .cls-14, .cls-15, .cls-16, .cls-17, .cls-18, .cls-19, .cls-20, .cls-21, .cls-22, .cls-23, .cls-24, .cls-26, .cls-27, .cls-28, .cls-29, .cls-30, .cls-31, .cls-32, .cls-33, .cls-34, .cls-35, .cls-36, .cls-37, .cls-38, .cls-39, .cls-40, .cls-41, .cls-42, .cls-43, .cls-44, .cls-45, .cls-46, .cls-47, .cls-48, .cls-49, .cls-50, .cls-51, .cls-52, .cls-53, .cls-54, .cls-55, .cls-56, .cls-57, .cls-58, .cls-59, .cls-60, .cls-61 {
        stroke-miterlimit: 10;
        stroke-width: 1.29px;
      }

      .cls-2 {
        stroke: url(#Dégradé_sans_nom_128-43);
      }

      .cls-3 {
        stroke: url(#Dégradé_sans_nom_128-8);
      }

      .cls-4 {
        stroke: url(#Dégradé_sans_nom_128-48);
      }

      .cls-5 {
        stroke: url(#Dégradé_sans_nom_128-17);
      }

      .cls-6 {
        stroke: url(#Dégradé_sans_nom_128-46);
      }

      .cls-7 {
        stroke: url(#Dégradé_sans_nom_128-28);
      }

      .cls-8 {
        stroke: url(#Dégradé_sans_nom_128-41);
      }

      .cls-9 {
        stroke: url(#Dégradé_sans_nom_128-54);
      }

      .cls-10 {
        stroke: url(#Dégradé_sans_nom_128-52);
      }

      .cls-11 {
        stroke: url(#Dégradé_sans_nom_128-39);
      }

      .cls-12 {
        stroke: url(#Dégradé_sans_nom_128-36);
      }

      .cls-13 {
        stroke: url(#Dégradé_sans_nom_128-27);
      }

      .cls-14 {
        stroke: url(#Dégradé_sans_nom_128-40);
      }

      .cls-15 {
        stroke: url(#Dégradé_sans_nom_128-29);
      }

      .cls-16 {
        stroke: url(#Dégradé_sans_nom_128-42);
      }

      .cls-17 {
        stroke: url(#Dégradé_sans_nom_128-44);
      }

      .cls-18 {
        stroke: url(#Dégradé_sans_nom_128-12);
      }

      .cls-19 {
        stroke: url(#Dégradé_sans_nom_128-15);
      }

      .cls-20 {
        stroke: url(#Dégradé_sans_nom_128-49);
      }

      .cls-21 {
        stroke: url(#Dégradé_sans_nom_128-16);
      }

      .cls-22 {
        stroke: url(#Dégradé_sans_nom_128-55);
      }

      .cls-23 {
        stroke: url(#Dégradé_sans_nom_128-23);
      }

      .cls-24 {
        stroke: url(#Dégradé_sans_nom_128-9);
      }

      .cls-25 {
        stroke-width: 0px;
      }

      .cls-26 {
        stroke: url(#Dégradé_sans_nom_128-24);
      }

      .cls-27 {
        stroke: url(#Dégradé_sans_nom_128-7);
      }

      .cls-28 {
        stroke: url(#Dégradé_sans_nom_128-58);
      }

      .cls-29 {
        stroke: url(#Dégradé_sans_nom_128-38);
      }

      .cls-30 {
        stroke: url(#Dégradé_sans_nom_128-20);
      }

      .cls-31 {
        stroke: url(#Dégradé_sans_nom_128);
      }

      .cls-32 {
        stroke: url(#Dégradé_sans_nom_128-30);
      }

      .cls-33 {
        stroke: url(#Dégradé_sans_nom_128-11);
      }

      .cls-34 {
        stroke: url(#Dégradé_sans_nom_128-60);
      }

      .cls-35 {
        stroke: url(#Dégradé_sans_nom_128-53);
      }

      .cls-36 {
        stroke: url(#Dégradé_sans_nom_128-50);
      }

      .cls-37 {
        stroke: url(#Dégradé_sans_nom_128-47);
      }

      .cls-38 {
        stroke: url(#Dégradé_sans_nom_128-22);
      }

      .cls-39 {
        stroke: url(#Dégradé_sans_nom_128-25);
      }

      .cls-40 {
        stroke: url(#Dégradé_sans_nom_128-33);
      }

      .cls-41 {
        stroke: url(#Dégradé_sans_nom_128-4);
      }

      .cls-42 {
        stroke: url(#Dégradé_sans_nom_128-32);
      }

      .cls-43 {
        stroke: url(#Dégradé_sans_nom_128-14);
      }

      .cls-62 {
        clip-path: url(#clippath);
      }

      .cls-44 {
        stroke: url(#Dégradé_sans_nom_128-21);
      }

      .cls-45 {
        stroke: url(#Dégradé_sans_nom_128-5);
      }

      .cls-46 {
        stroke: url(#Dégradé_sans_nom_128-10);
      }

      .cls-47 {
        stroke: url(#Dégradé_sans_nom_128-35);
      }

      .cls-48 {
        stroke: url(#Dégradé_sans_nom_128-13);
      }

      .cls-49 {
        stroke: url(#Dégradé_sans_nom_128-45);
      }

      .cls-50 {
        stroke: url(#Dégradé_sans_nom_128-34);
      }

      .cls-51 {
        stroke: url(#Dégradé_sans_nom_128-18);
      }

      .cls-52 {
        stroke: url(#Dégradé_sans_nom_128-26);
      }

      .cls-53 {
        stroke: url(#Dégradé_sans_nom_128-57);
      }

      .cls-54 {
        stroke: url(#Dégradé_sans_nom_128-6);
      }

      .cls-55 {
        stroke: url(#Dégradé_sans_nom_128-2);
      }

      .cls-56 {
        stroke: url(#Dégradé_sans_nom_128-59);
      }

      .cls-57 {
        stroke: url(#Dégradé_sans_nom_128-3);
      }

      .cls-58 {
        stroke: url(#Dégradé_sans_nom_128-19);
      }

      .cls-59 {
        stroke: url(#Dégradé_sans_nom_128-37);
      }

      .cls-60 {
        stroke: url(#Dégradé_sans_nom_128-56);
      }

      .cls-61 {
        stroke: url(#Dégradé_sans_nom_128-31);
      }
    </style>
    <clipPath id="clippath">
      <rect class="cls-25" width="1781.99" height="693.94"/>
    </clipPath>
    <linearGradient id="Dégradé_sans_nom_128" data-name="Dégradé sans nom 128" x1="-.03" y1="830.51" x2="1782.09" y2="830.51" gradientUnits="userSpaceOnUse">
      <stop offset="0" stop-color="#2581c4"/>
      <stop offset=".27" stop-color="#626dc4"/>
      <stop offset=".77" stop-color="#d249c4"/>
      <stop offset=".99" stop-color="#ff3bc4"/>
    </linearGradient>
    <linearGradient id="Dégradé_sans_nom_128-2" data-name="Dégradé sans nom 128" x1="-.04" y1="812.19" x2="1782.1" y2="812.19" xlink:href="#Dégradé_sans_nom_128"/>
    <linearGradient id="Dégradé_sans_nom_128-3" data-name="Dégradé sans nom 128" x1="-.05" y1="794.19" x2="1782.11" y2="794.19" xlink:href="#Dégradé_sans_nom_128"/>
    <linearGradient id="Dégradé_sans_nom_128-4" data-name="Dégradé sans nom 128" x1="-.05" y1="776.58" x2="1782.11" y2="776.58" xlink:href="#Dégradé_sans_nom_128"/>
    <linearGradient id="Dégradé_sans_nom_128-5" data-name="Dégradé sans nom 128" x1="-.05" y1="759.34" x2="1782.11" y2="759.34" xlink:href="#Dégradé_sans_nom_128"/>
    <linearGradient id="Dégradé_sans_nom_128-6" data-name="Dégradé sans nom 128" x1="-.05" y1="742.45" x2="1782.11" y2="742.45" xlink:href="#Dégradé_sans_nom_128"/>
    <linearGradient id="Dégradé_sans_nom_128-7" data-name="Dégradé sans nom 128" x1="-.04" y1="725.91" x2="1782.1" y2="725.91" xlink:href="#Dégradé_sans_nom_128"/>
    <linearGradient id="Dégradé_sans_nom_128-8" data-name="Dégradé sans nom 128" x1="-.04" y1="709.43" x2="1782.09" y2="709.43" xlink:href="#Dégradé_sans_nom_128"/>
    <linearGradient id="Dégradé_sans_nom_128-9" data-name="Dégradé sans nom 128" x1="-.03" y1="693.84" x2="1782.07" y2="693.84" xlink:href="#Dégradé_sans_nom_128"/>
    <linearGradient id="Dégradé_sans_nom_128-10" data-name="Dégradé sans nom 128" x1="-.02" y1="678.55" x2="1782.06" y2="678.55" xlink:href="#Dégradé_sans_nom_128"/>
    <linearGradient id="Dégradé_sans_nom_128-11" data-name="Dégradé sans nom 128" x1="-.01" y1="669.91" x2="1782.04" y2="669.91" xlink:href="#Dégradé_sans_nom_128"/>
    <linearGradient id="Dégradé_sans_nom_128-12" data-name="Dégradé sans nom 128" x1="0" y1="665.8" x2="1782.02" y2="665.8" xlink:href="#Dégradé_sans_nom_128"/>
    <linearGradient id="Dégradé_sans_nom_128-13" data-name="Dégradé sans nom 128" x1="0" y1="661.02" x2="1782.01" y2="661.02" xlink:href="#Dégradé_sans_nom_128"/>
    <linearGradient id="Dégradé_sans_nom_128-14" data-name="Dégradé sans nom 128" x1="0" y1="656.68" x2="1781.99" y2="656.68" xlink:href="#Dégradé_sans_nom_128"/>
    <linearGradient id="Dégradé_sans_nom_128-15" data-name="Dégradé sans nom 128" x1="-.01" y1="651.92" x2="1782.01" y2="651.92" xlink:href="#Dégradé_sans_nom_128"/>
    <linearGradient id="Dégradé_sans_nom_128-16" data-name="Dégradé sans nom 128" x1="-.02" y1="644.8" x2="1782.02" y2="644.8" xlink:href="#Dégradé_sans_nom_128"/>
    <linearGradient id="Dégradé_sans_nom_128-17" data-name="Dégradé sans nom 128" x1="-.02" y1="638.82" x2="1782.02" y2="638.82" xlink:href="#Dégradé_sans_nom_128"/>
    <linearGradient id="Dégradé_sans_nom_128-18" data-name="Dégradé sans nom 128" x1="-.02" y1="631.48" x2="1782.02" y2="631.48" xlink:href="#Dégradé_sans_nom_128"/>
    <linearGradient id="Dégradé_sans_nom_128-19" data-name="Dégradé sans nom 128" x1="-.01" y1="624.35" x2="1782.02" y2="624.35" xlink:href="#Dégradé_sans_nom_128"/>
    <linearGradient id="Dégradé_sans_nom_128-20" data-name="Dégradé sans nom 128" x1="0" y1="613.03" x2="1782" y2="613.03" xlink:href="#Dégradé_sans_nom_128"/>
    <linearGradient id="Dégradé_sans_nom_128-21" data-name="Dégradé sans nom 128" x1="0" y1="600.66" x2="1781.99" y2="600.66" xlink:href="#Dégradé_sans_nom_128"/>
    <linearGradient id="Dégradé_sans_nom_128-22" data-name="Dégradé sans nom 128" x1="-.02" y1="587.64" x2="1781.99" y2="587.64" xlink:href="#Dégradé_sans_nom_128"/>
    <linearGradient id="Dégradé_sans_nom_128-23" data-name="Dégradé sans nom 128" x1="-.02" y1="574.37" x2="1782" y2="574.37" xlink:href="#Dégradé_sans_nom_128"/>
    <linearGradient id="Dégradé_sans_nom_128-24" data-name="Dégradé sans nom 128" x1="-.03" y1="560.91" x2="1782" y2="560.91" xlink:href="#Dégradé_sans_nom_128"/>
    <linearGradient id="Dégradé_sans_nom_128-25" data-name="Dégradé sans nom 128" x1="-.03" y1="549.15" x2="1782" y2="549.15" xlink:href="#Dégradé_sans_nom_128"/>
    <linearGradient id="Dégradé_sans_nom_128-26" data-name="Dégradé sans nom 128" x1="-.04" y1="534.64" x2="1782" y2="534.64" xlink:href="#Dégradé_sans_nom_128"/>
    <linearGradient id="Dégradé_sans_nom_128-27" data-name="Dégradé sans nom 128" x1="-.04" y1="519.15" x2="1782" y2="519.15" xlink:href="#Dégradé_sans_nom_128"/>
    <linearGradient id="Dégradé_sans_nom_128-28" data-name="Dégradé sans nom 128" x1="-.04" y1="503.32" x2="1782" y2="503.32" xlink:href="#Dégradé_sans_nom_128"/>
    <linearGradient id="Dégradé_sans_nom_128-29" data-name="Dégradé sans nom 128" x1="-.04" y1="487.19" x2="1782" y2="487.19" xlink:href="#Dégradé_sans_nom_128"/>
    <linearGradient id="Dégradé_sans_nom_128-30" data-name="Dégradé sans nom 128" x1="-.04" y1="470.79" x2="1782" y2="470.79" xlink:href="#Dégradé_sans_nom_128"/>
    <linearGradient id="Dégradé_sans_nom_128-31" data-name="Dégradé sans nom 128" x1="-.03" y1="454.18" x2="1782" y2="454.18" xlink:href="#Dégradé_sans_nom_128"/>
    <linearGradient id="Dégradé_sans_nom_128-32" data-name="Dégradé sans nom 128" x1="-.03" y1="435.61" x2="1782" y2="435.61" xlink:href="#Dégradé_sans_nom_128"/>
    <linearGradient id="Dégradé_sans_nom_128-33" data-name="Dégradé sans nom 128" x1="-.02" y1="418.84" x2="1781.99" y2="418.84" xlink:href="#Dégradé_sans_nom_128"/>
    <linearGradient id="Dégradé_sans_nom_128-34" data-name="Dégradé sans nom 128" x1="-.02" y1="402.01" x2="1781.99" y2="402.01" xlink:href="#Dégradé_sans_nom_128"/>
    <linearGradient id="Dégradé_sans_nom_128-35" data-name="Dégradé sans nom 128" x1="-.01" y1="384.98" x2="1781.99" y2="384.98" xlink:href="#Dégradé_sans_nom_128"/>
    <linearGradient id="Dégradé_sans_nom_128-36" data-name="Dégradé sans nom 128" x1="0" y1="368.22" x2="1781.99" y2="368.22" xlink:href="#Dégradé_sans_nom_128"/>
    <linearGradient id="Dégradé_sans_nom_128-37" data-name="Dégradé sans nom 128" x1="0" y1="351.52" x2="1782" y2="351.52" xlink:href="#Dégradé_sans_nom_128"/>
    <linearGradient id="Dégradé_sans_nom_128-38" data-name="Dégradé sans nom 128" x1="0" y1="334.92" x2="1782" y2="334.92" xlink:href="#Dégradé_sans_nom_128"/>
    <linearGradient id="Dégradé_sans_nom_128-39" data-name="Dégradé sans nom 128" x1="-.01" y1="318.51" x2="1782" y2="318.51" xlink:href="#Dégradé_sans_nom_128"/>
    <linearGradient id="Dégradé_sans_nom_128-40" data-name="Dégradé sans nom 128" x1="-.02" y1="302.72" x2="1782.01" y2="302.72" xlink:href="#Dégradé_sans_nom_128"/>
    <linearGradient id="Dégradé_sans_nom_128-41" data-name="Dégradé sans nom 128" x1="-.03" y1="292.24" x2="1782.01" y2="292.24" xlink:href="#Dégradé_sans_nom_128"/>
    <linearGradient id="Dégradé_sans_nom_128-42" data-name="Dégradé sans nom 128" x1="-.04" y1="282.07" x2="1782.01" y2="282.07" xlink:href="#Dégradé_sans_nom_128"/>
    <linearGradient id="Dégradé_sans_nom_128-43" data-name="Dégradé sans nom 128" x1="-.04" y1="272.22" x2="1782.02" y2="272.22" xlink:href="#Dégradé_sans_nom_128"/>
    <linearGradient id="Dégradé_sans_nom_128-44" data-name="Dégradé sans nom 128" x1="-.05" y1="262.71" x2="1782.02" y2="262.71" xlink:href="#Dégradé_sans_nom_128"/>
    <linearGradient id="Dégradé_sans_nom_128-45" data-name="Dégradé sans nom 128" x1="-.06" y1="253.53" x2="1782.02" y2="253.53" xlink:href="#Dégradé_sans_nom_128"/>
    <linearGradient id="Dégradé_sans_nom_128-46" data-name="Dégradé sans nom 128" x1="-.06" y1="244.72" x2="1782.03" y2="244.72" xlink:href="#Dégradé_sans_nom_128"/>
    <linearGradient id="Dégradé_sans_nom_128-47" data-name="Dégradé sans nom 128" x1="-.07" y1="236.29" x2="1782.03" y2="236.29" xlink:href="#Dégradé_sans_nom_128"/>
    <linearGradient id="Dégradé_sans_nom_128-48" data-name="Dégradé sans nom 128" x1="-.07" y1="228.25" x2="1782.03" y2="228.25" xlink:href="#Dégradé_sans_nom_128"/>
    <linearGradient id="Dégradé_sans_nom_128-49" data-name="Dégradé sans nom 128" x1="-.08" y1="220.62" x2="1782.04" y2="220.62" xlink:href="#Dégradé_sans_nom_128"/>
    <linearGradient id="Dégradé_sans_nom_128-50" data-name="Dégradé sans nom 128" x1="-.08" y1="213.42" x2="1782.04" y2="213.42" xlink:href="#Dégradé_sans_nom_128"/>
    <linearGradient id="Dégradé_sans_nom_128-51" data-name="Dégradé sans nom 128" x1="-.08" y1="206.66" x2="1782.04" y2="206.66" xlink:href="#Dégradé_sans_nom_128"/>
    <linearGradient id="Dégradé_sans_nom_128-52" data-name="Dégradé sans nom 128" x1="-.09" y1="200.37" x2="1782.04" y2="200.37" xlink:href="#Dégradé_sans_nom_128"/>
    <linearGradient id="Dégradé_sans_nom_128-53" data-name="Dégradé sans nom 128" x1="-.09" y1="194.55" x2="1782.04" y2="194.55" xlink:href="#Dégradé_sans_nom_128"/>
    <linearGradient id="Dégradé_sans_nom_128-54" data-name="Dégradé sans nom 128" x1="-.09" y1="189.24" x2="1782.04" y2="189.24" xlink:href="#Dégradé_sans_nom_128"/>
    <linearGradient id="Dégradé_sans_nom_128-55" data-name="Dégradé sans nom 128" x1="-.08" y1="184.43" x2="1782.04" y2="184.43" xlink:href="#Dégradé_sans_nom_128"/>
    <linearGradient id="Dégradé_sans_nom_128-56" data-name="Dégradé sans nom 128" x1="-.08" y1="180.16" x2="1782.04" y2="180.16" xlink:href="#Dégradé_sans_nom_128"/>
    <linearGradient id="Dégradé_sans_nom_128-57" data-name="Dégradé sans nom 128" x1="-.08" y1="174.91" x2="1782.04" y2="174.91" xlink:href="#Dégradé_sans_nom_128"/>
    <linearGradient id="Dégradé_sans_nom_128-58" data-name="Dégradé sans nom 128" x1="-.07" y1="172.06" x2="1782.04" y2="172.06" xlink:href="#Dégradé_sans_nom_128"/>
    <linearGradient id="Dégradé_sans_nom_128-59" data-name="Dégradé sans nom 128" x1="-.06" y1="169.78" x2="1782.04" y2="169.78" xlink:href="#Dégradé_sans_nom_128"/>
    <linearGradient id="Dégradé_sans_nom_128-60" data-name="Dégradé sans nom 128" x1="-.05" y1="168.11" x2="1782.03" y2="168.11" xlink:href="#Dégradé_sans_nom_128"/>
  </defs>
  <g id="Calque_1-2" data-name="Calque 1">
    <g class="cls-62">
      <g>
        <path class="cls-31" d="M0,836.53c48.06-2.19,81.97-31.2,120.95-82.5,38.2-50.27,79.57-68.19,125.56-61.21,90.19,13.68,179.08,67.77,267.25,104.41,38.1,15.83,76.83,32.17,115.8,36.78,29.72,3.52,59.37,2.96,89.08,8.32,123.3,22.27,244.18,78.54,366.91,109.15,52.12,13,110.9,32.2,162.91,9.75,36.01-15.54,60.76-59.1,84.18-112.12,26.94-60.99,50.57-124.49,92.08-148.2,42.75-24.42,84.27-5.61,126.3,16.35,75.56,39.49,152.56,102.88,230.96,115.43"/>
        <path class="cls-55" d="M0,818.3c47.53-2.79,81.92-31.6,121.01-81.24,40.23-51.1,82.72-68.88,130.64-60.94,89.66,14.86,177.63,68.82,265.37,105.28,37.48,15.58,75.64,31.66,114.02,35.4,29.7,2.9,59.27,3.8,88.92,9.27,122.22,22.55,242.37,75.18,364.09,105.16,51.81,12.76,110.44,33.18,162.16,10.81,36.99-15.99,62.64-60.15,87.32-113.64,27.62-59.86,52.18-121.33,93.58-144.78,42.9-24.31,84.32-4.85,126.51,17.14,74.9,39.04,150.78,99.75,228.38,113.48"/>
        <path class="cls-57" d="M0,800.39c47.42-3.33,82.86-32.23,122.68-79.49,41.02-48.69,83.89-67.69,131.95-59.76,88.77,14.65,175.78,68.83,262.58,105.37,37.3,15.7,75.25,31.66,113.46,35.42,29.77,2.93,59.44,4.34,89.15,9.7,121.66,21.97,241.58,70.26,362.83,98.72,51.83,12.16,110.16,32.91,161.84,10.4,36.95-16.1,63.57-59.2,89.36-110.9,28.94-58,55.04-117.65,96.44-140.94,42.87-24.12,83.69-5.28,125.96,16.45,74.21,38.15,149,96.25,225.74,110.72"/>
        <path class="cls-41" d="M0,782.81c47.53-3.62,84.41-32.22,125.29-76.73,42.05-45.78,85.61-65.72,133.92-57.73,87.52,14.48,173.18,68.89,258.68,105.51,36.94,15.82,74.5,31.7,112.37,35.45,29.78,2.95,59.48,4.54,89.21,9.6,120.94,20.58,240.5,63.83,361.1,89.98,51.95,11.26,109.84,31.52,161.59,9.49,37.14-15.81,65.09-57.37,92.37-106.86,30.67-55.64,58.76-112.92,100.42-135.57,42.77-23.26,82.97-5.63,125.21,15.66,73.05,36.81,146.42,92.13,221.83,106.64"/>
        <path class="cls-45" d="M0,765.55c47.87-3.68,86.51-31.64,128.73-73.09,43.25-42.47,87.81-63.07,136.46-54.95,85.95,14.35,169.93,68.97,253.8,105.69,36.41,15.94,73.45,31.78,110.81,35.51,29.72,2.97,59.41,4.47,89.1,9.04,120.09,18.49,239.14,56.07,358.98,79.24,52.15,10.08,109.51,29.14,161.41,8.13,37.55-15.2,67.14-54.82,96.21-101.69,32.75-52.8,63.19-107.25,105.39-128.88,42.6-21.84,82.17-5.88,124.29,14.78,71.49,35.07,143.14,87.42,216.81,101.42"/>
        <path class="cls-54" d="M0,748.61c48.43-3.55,89.13-30.44,132.86-68.7,44.53-38.96,90.41-59.84,139.47-51.53,84.12,14.24,166.14,69.09,248.09,105.91,66.27,29.78,130.35,34.72,197.72,43.66,119.14,15.81,237.56,47.17,356.52,66.8,52.4,8.64,109.17,25.94,161.29,6.39,38.2-14.33,69.67-51.68,100.76-95.55,35.09-49.51,68.18-100.75,111.19-121.06,42.33-19.99,81.34-6.03,123.23,13.83,69.6,33,139.25,82.18,210.85,95.21"/>
        <path class="cls-27" d="M0,731.99c98.16-6.5,180.74-128.48,280.46-111.28,82.06,14.15,161.89,69.23,241.7,106.17,65.45,30.29,128.4,35.31,195.08,42.46,118.11,12.67,235.78,37.33,353.78,52.94,52.66,6.97,108.85,22.1,161.22,4.34,39.08-13.25,72.63-48.07,105.9-88.62,37.63-45.85,73.59-93.55,117.68-112.3,41.95-17.85,80.52-6.06,122.05,12.82,67.44,30.65,134.86,76.49,204.11,88.19"/>
        <path class="cls-3" d="M0,715.69c99.94-5.63,188.28-119.24,289.37-101.42,79.83,14.07,157.28,69.38,234.76,106.44,64.55,30.87,126.19,35.86,192.09,41.01,117.04,9.15,233.84,26.74,350.82,37.96,52.92,5.08,108.56,17.79,161.19,2.04,40.18-12.02,75.94-44.09,111.51-81.05,40.31-41.89,79.28-85.77,124.71-102.81,106.96-40.11,211.73,76.24,317.53,92.29"/>
        <path class="cls-24" d="M0,699.7c102.06-4.55,196.01-109.47,298.85-90.89,77.48,14,152.4,69.55,227.43,106.73,63.58,31.51,123.78,36.37,188.84,39.38,115.93,5.37,231.78,15.59,347.69,22.17,53.15,3.01,108.31,13.16,161.19-.44,41.48-10.67,79.54-39.81,117.47-73.02,43.08-37.72,85.12-77.57,132.15-92.77,104.77-33.86,204.79,69.53,308.37,83.06"/>
        <path class="cls-46" d="M0,684.03c103.25-3.31,201.32-97.57,304.97-80.72,75.31,12.24,148.21,68.65,220.74,106.41,32.54,16.94,65.86,33.19,99.59,37.36,29.02,3.58,58.46,1.33,87.53,1.69,115.5,1.44,230.99,4.11,346.49,5.87,53.58.82,108.53,8.36,161.86-3.43,41.83-9.25,81.28-34.59,120.55-63.18,46.03-33.51,91.33-69.6,140.31-83.2,102.49-28.47,198.63,62.36,299.95,73.21"/>
        <path class="cls-33" d="M0,668.67c105.94-2.02,208.95-87.29,315.06-69.57,72.86,12.17,143.1,68.82,213.05,106.72,31.52,17.08,63.84,33.32,96.6,37.48,28.79,3.65,58.11.46,86.94-.19,114.41-2.57,228.79-7.63,343.2-10.77,53.75-1.47,108.39,3.62,161.94-5.98,43.42-7.79,85.12-30.06,126.67-54.91,48.85-29.21,97.19-60.95,148.19-72.56,99.38-22.62,192.04,55.63,290.34,63.56"/>
        <path class="cls-18" d="M0,653.63c108.74-.71,216.38-77.13,325.11-58.46,70.44,12.09,138.01,68.98,205.39,107.03,30.48,17.21,61.83,33.57,93.62,37.6,28.57,3.62,57.76-.42,86.36-2.06,113.35-6.51,226.59-19.33,339.92-27.34,53.89-3.81,108.26-.99,162.02-8.52,45.1-6.32,88.99-25.51,132.77-46.68,51.62-24.96,102.91-52.35,156.04-61.96,95.96-17.35,185.76,48.9,280.76,53.94"/>
        <path class="cls-48" d="M0,638.89c112.54.57,226.07-69.55,338.39-46.84,67.79,13.71,132.13,70.24,196.94,107.96,29.2,17,59.23,32.9,89.79,36.36,28.26,3.2,57.09-1.41,85.33-4.02,111.7-10.33,223.09-30.64,334.72-43.37,53.74-6.13,107.56-5.5,161.27-10.87,48.02-4.8,95.17-21.47,142.26-39.56,54.08-20.78,107.94-43.62,163.05-51.04,38.15-5.14,75.92-3.77,113.85,6.18,52,13.64,103.75,37.21,156.38,38.53"/>
        <path class="cls-43" d="M0,624.46c59.24.88,117.79-10.03,176.64-22.06,55.98-11.44,114.79-26.16,171.03-14.49,65.54,13.61,127.34,70.39,189.75,108.25,28.28,17.15,57.42,33.07,87.12,36.47,28.08,3.22,56.82-2.17,84.85-5.69,110.79-13.9,220.99-41.68,331.65-58.87,53.82-8.36,107.37-9.58,161.26-13.28,49.75-3.42,98.94-17.07,148.09-31.69,56.6-16.84,113.07-35.62,170.34-41.2,37.55-3.66,75.15-3.16,112.53,5.09,49.5,10.94,98.76,30.62,148.73,30.57"/>
        <path class="cls-19" d="M0,610.33c60.76,1.36,121.11-7.35,181.64-16.73,57.22-8.87,117.35-22.46,174.64-10.28,63.46,13.49,122.85,70.52,183.02,108.52,27.43,17.33,55.75,33.21,84.67,36.57,27.93,3.25,56.59-2.8,84.44-7.14,109.99-17.14,219.01-52.06,328.77-73.42,104.88-20.41,209.88-16.42,314.74-39.84,58.94-13.17,117.82-28.09,177.17-31.98,37.04-2.42,74.37-2.52,111.29,4.05,47.17,8.39,94.12,24.28,141.6,23.15"/>
        <path class="cls-21" d="M0,596.51c62.16,1.7,124.1-4.93,186.13-11.95,58.33-6.6,119.65-19.17,177.91-6.54,61.59,13.35,118.76,70.61,176.89,108.77,56.78,37.27,107.59,39.13,166.64,28.35,109.29-19.96,217.17-61.62,326.14-86.73,106.09-24.45,213.08-18.03,319.57-35.14,61.07-9.81,122.11-21.17,183.4-23.57,36.64-1.43,73.59-1.86,110.15,3.07,45.06,6.07,89.92,18.29,135.16,16.44"/>
        <path class="cls-5" d="M0,582.99c63.39,1.83,126.67-2.94,189.99-7.84,59.3-4.59,121.62-16.38,180.74-3.37,59.97,13.2,115.15,70.68,171.5,108.98,55.99,38.06,106.28,39.55,164.65,27.62,108.71-22.24,215.53-70.16,323.81-98.52,107.18-28.07,215.83-19.25,323.71-30.95,62.92-6.83,125.84-14.98,188.88-16.18,79.64-1.52,159.25,16.78,238.71,12.76"/>
        <path class="cls-51" d="M0,569.78c64.39,1.72,128.74-1.44,193.1-4.54,60.08-2.9,123.22-14.15,183.06-.87,58.66,13.02,112.13,70.69,167,109.16,55.29,38.76,105.45,40.03,163.23,27.29,108.28-23.89,214.13-77.49,321.84-108.47,108.06-31.08,218.06-20.17,327.02-27.4,64.47-4.28,128.94-9.63,193.46-9.99,77.71-.43,155.64,11.06,233.27,7.14"/>
        <path class="cls-58" d="M0,556.86c65.12,1.29,130.23-.52,195.35-2.17,60.66-1.54,124.41-12.58,184.77.84,57.69,12.82,109.78,70.66,163.53,109.29,54.72,39.32,105.15,40.6,162.48,27.43,107.98-24.8,213-83.41,320.3-116.3,108.61-33.29,219.74-20.86,329.37-24.57,142.05-4.81,284.24,3.21,426.19-2.37"/>
        <path class="cls-30" d="M0,544.24c65.91.5,131.82-.29,197.73-.87,59.77-.53,121.9-10.42,181.42.84,57.57,10.89,109.26,69.26,162.44,108.73,54.65,40.56,105.92,42.93,163.43,29.79,108.5-24.78,213.49-88.05,321.17-122.18,107.72-34.14,218.64-21.1,327.43-22.3,142.78-1.57,285.59.28,428.36-2.03"/>
        <path class="cls-44" d="M0,531.79c65.98-.6,131.97-.63,197.95-.5,59.71.12,122.05-10.69,181.45,1.02,57.47,11.33,109.15,68.96,162.34,108.19,54.7,40.34,106.01,43.29,163.57,30.23,108.4-24.59,213.12-88.9,320.67-123.07,107.74-34.23,218.93-21.65,327.74-22.03,142.75-.5,285.51-1.45,428.26-1.93"/>
        <path class="cls-38" d="M0,518.83c65.98-1.56,131.95-.71,197.92.22,59.5.84,122.03-10.95,181.15,1.62,57.64,12.25,110.1,68.18,163.8,106.61,55.1,39.43,105.7,43.05,163.53,29.89,108.24-24.62,212.92-87.32,320.35-121,107.84-33.8,218.87-22.19,327.77-22.75,142.48-.73,284.97-1.05,427.46-2.18"/>
        <path class="cls-23" d="M0,505.3c65.97-2.33,131.91-.44,197.87,1.47,30.85.89,61.7,1.58,92.56,1.58,29.13,0,59.34-5.48,88.32,1.01,58,12.98,111.42,66.96,165.85,104.41,55.56,38.23,105.69,42.5,163.81,29.37,108.06-24.42,212.74-85.28,320.06-118.22,107.83-33.1,218.61-22.61,327.47-23.48,142.01-1.14,284.04-.96,426.04-2.59"/>
        <path class="cls-26" d="M0,491.24c65.58-2.93,131.1.12,196.66,3.18,30.66,1.43,61.33,2.62,92,2.87,30.76.25,62.46-5.81,92.98,2.01,58.16,14.9,112.17,66.32,167.38,102.09,55.7,36.1,105.42,40.1,163.37,27.1,107.23-24.06,211.28-82.47,317.83-114.33,108.74-32.52,220.25-23.21,329.99-24.49,140.59-1.64,281.2-1.14,421.78-3.12"/>
        <path class="cls-39" d="M0,476.7c65.57-3.38,131.04,1.03,196.57,5.39,30.63,2.04,61.28,3.8,91.93,4.35,30.74.55,62.36-5.62,92.85,2.23,58.91,15.16,114.22,64.23,170.52,98.73,25.91,15.88,52.59,30.61,79.75,35.14,27.84,4.64,56.78-2.8,84.46-8.85,107.05-23.41,211.13-79.57,317.56-110.29,108.51-31.32,219.6-23.39,329.06-25.26,139.77-2.38,279.53-1.6,419.28-3.82"/>
        <path class="cls-52" d="M0,461.72c65.57-3.68,130.98,2.24,196.46,8.05,30.6,2.71,61.22,5.12,91.85,6.04,30.74.92,62.29-5.23,92.79,2.54,59.83,15.24,116.57,61.78,174.14,94.86,26.32,15.12,53.34,29.44,80.78,34.04,27.86,4.67,56.83-2.85,84.54-8.71,106.88-22.58,211-76.27,317.31-105.66,108.18-29.91,218.77-23.44,327.85-26.04,138.79-3.3,277.51-2.31,416.28-4.64"/>
        <path class="cls-13" d="M0,446.34c65.57-3.84,130.9,3.72,196.33,11.12,30.57,3.46,61.15,6.57,91.76,7.92,30.76,1.36,62.24-4.63,92.76,2.95,60.92,15.13,119.23,59.01,178.2,90.51,26.8,14.31,54.24,28.11,82.01,32.71,27.9,4.62,56.89-2.85,84.66-8.46,106.7-21.57,210.87-72.6,317.07-100.5,107.77-28.31,217.78-23.37,326.38-26.83,63.2-2.01,126.37-7.14,189.57-8.48,74.43-1.58,148.82,4.15,223.24,2.89"/>
        <path class="cls-7" d="M0,430.62c65.58-3.87,130.82,5.45,196.19,14.58,30.53,4.26,61.08,8.14,91.67,9.98,30.8,1.86,62.21-3.86,92.79,3.44,62.17,14.85,122.15,55.94,182.68,85.71,27.35,13.45,55.27,26.63,83.45,31.17,27.96,4.51,56.96-2.8,84.81-8.14,106.53-20.4,210.77-68.58,316.85-94.83,107.28-26.55,216.64-23.18,324.66-27.63,62.34-2.57,124.63-8.66,186.98-10.4,74-2.06,147.93,4.96,221.91,3.74"/>
        <path class="cls-15" d="M0,414.6c65.61-3.79,130.73,7.43,196.03,18.39,30.48,5.12,61,9.82,91.57,12.21,30.86,2.42,62.2-2.92,92.86,4.02,63.57,14.4,125.34,52.59,187.55,80.51,27.96,12.55,56.41,25.01,85.07,29.44,28.05,4.33,57.04-2.71,84.99-7.73,106.36-19.08,210.67-64.23,316.64-88.69,106.72-24.64,215.35-22.86,322.72-28.45,61.41-3.19,122.75-10.31,184.17-12.48,73.52-2.6,146.91,5.78,220.4,4.65"/>
        <path class="cls-32" d="M0,398.32c65.64-3.6,130.64,9.62,195.85,22.54,30.43,6.03,60.91,11.6,91.46,14.6,30.92,3.03,62.22-1.83,92.96,4.68,65.12,13.79,128.76,48.98,192.76,74.94,28.62,11.61,57.66,23.27,86.86,27.52,28.14,4.1,57.13-2.58,85.19-7.24,106.19-17.64,210.58-59.58,316.44-82.13,106.11-22.61,213.92-22.42,320.58-29.27,60.41-3.88,120.74-12.08,181.17-14.72,72.99-3.19,145.76,6.61,218.7,5.62"/>
        <path class="cls-61" d="M0,381.84c65.69-3.31,130.55,12.02,195.66,26.98,30.38,6.98,60.81,13.48,91.35,17.12,30.99,3.7,62.25-.62,93.11,5.4,66.79,13.02,132.41,45.15,198.3,69.02,29.33,10.63,59,21.42,88.81,25.44,28.25,3.81,57.23-2.41,85.42-6.69,106.03-16.09,210.5-54.65,316.25-75.18,105.46-20.47,212.35-21.85,318.25-30.1,59.36-4.63,118.61-13.95,177.99-17.1,72.41-3.85,144.5,7.46,216.85,6.65"/>
        <path class="cls-42" d="M0,365.19c65.75-2.93,130.46,14.59,195.46,31.7,30.32,7.98,60.71,15.44,91.23,19.77,31.07,4.41,62.31.72,93.28,6.18,68.58,12.1,136.25,41.1,204.13,62.79,60.09,19.2,115.89,25.4,176.56,17.13,105.88-14.43,210.43-49.47,316.07-67.87,104.78-18.25,210.65-21.14,315.75-30.94,58.25-5.43,116.37-15.92,174.66-19.61,71.8-4.55,143.13,8.33,214.85,7.73"/>
        <path class="cls-40" d="M0,348.43c65.83-2.47,130.37,17.33,195.25,36.65,30.26,9.01,60.6,17.47,91.11,22.53,31.15,5.17,62.38,2.14,93.48,7.02,70.48,11.04,140.27,36.86,210.21,56.29,60.7,16.86,117.9,22.78,179.04,15.44,105.73-12.69,210.37-44.01,315.9-60.24,54.43-8.38,108.65-10.45,163.17-13.5,50.08-2.8,99.92-12.78,149.93-18.29,57.09-6.28,114.03-17.99,171.18-22.23,71.16-5.29,141.67,9.21,212.71,8.84"/>
        <path class="cls-50" d="M0,331.59c65.93-1.94,130.29,20.22,195.03,41.82,30.2,10.07,60.48,19.57,90.98,25.4,31.23,5.97,62.47,3.65,93.71,7.9,72.47,9.86,144.44,32.46,216.52,49.55,61.35,14.54,119.97,20.02,181.64,13.69,105.59-10.84,210.31-38.41,315.74-52.34,54.41-7.19,108.72-8.49,163.18-12.08,49.19-3.24,98.06-14.24,147.14-20.55,55.89-7.19,111.6-20.13,167.57-24.95,70.49-6.07,140.12,10.1,210.47,10"/>
        <path class="cls-47" d="M0,314.73c66.04-1.34,130.21,23.24,194.81,47.17,62.08,23,122.03,29.97,184.81,37.18,136.4,15.67,270.42,66.15,407.39,54.47,105.46-8.99,210.24-32.62,315.59-44.2,54.39-5.98,108.76-6.43,163.16-10.59,48.26-3.7,96.14-15.72,144.27-22.89,54.66-8.14,109.09-22.35,163.85-27.76,69.81-6.9,138.49,11,208.12,11.19"/>
        <path class="cls-12" d="M0,297.89c66.16-.69,130.13,26.36,194.57,52.68,62.12,25.37,121.8,35.27,184.94,41.16,139.34,13.02,277.15,54.85,416.87,45.48,105.33-7.06,210.18-26.66,315.44-35.86,54.35-4.75,108.8-4.27,163.12-9.05,47.32-4.16,94.17-17.22,141.31-25.29,53.4-9.14,106.51-24.63,160.05-30.64,69.13-7.75,136.79,11.92,205.69,12.41"/>
        <path class="cls-59" d="M0,281.11c66.3,0,130.07,29.58,194.33,58.31,62.11,27.77,121.6,40.67,185.08,45.24,142.42,10.24,283.91,43.23,426.56,36.31,105.22-5.1,210.12-20.58,315.3-27.35,54.31-3.49,108.82-2.04,163.07-7.45,46.36-4.63,92.15-18.72,138.29-27.73,52.11-10.17,103.88-26.97,156.17-33.57,68.43-8.63,135.03,12.84,203.2,13.66"/>
        <path class="cls-29" d="M0,264.45c66.46.73,130.01,32.88,194.09,64.04,62.06,30.18,121.41,46.15,185.24,49.38,145.6,7.37,290.68,31.32,436.4,27.01,105.13-3.11,210.06-14.4,315.15-18.71,54.25-2.23,108.82.26,163-5.82,45.4-5.1,90.11-20.22,135.23-30.22,50.8-11.25,101.2-29.36,152.23-36.55,67.75-9.54,133.23,13.78,200.65,14.92"/>
        <path class="cls-11" d="M0,247.94c66.64,1.49,129.96,36.22,193.84,69.84,61.97,32.6,121.25,51.66,185.4,53.57,148.85,4.43,297.46,19.19,446.35,17.62,105.04-1.11,209.99-8.13,315.02-9.99,54.2-.96,108.82,2.61,162.93-4.17,44.43-5.57,88.04-21.7,132.13-32.73,49.48-12.37,98.49-31.79,148.26-39.55,67.07-10.47,131.38,14.72,198.07,16.2"/>
        <path class="cls-14" d="M0,231.64c66.82,2.27,129.91,39.61,193.59,75.67,61.84,35.02,121.1,57.18,185.56,57.78,152.13,1.43,304.24,6.88,456.37,8.17,104.97.89,209.91-1.81,314.88-1.21,54.13.31,108.82,5,162.85-2.5,43.45-6.03,86-22.9,129.01-35.25,48.11-13.81,95.77-34.24,144.26-42.57,66.41-11.41,129.51,15.67,195.46,17.48"/>
        <path class="cls-8" d="M0,215.59c67.02,3.05,129.88,43.02,193.34,81.52,61.68,37.42,120.96,62.67,185.72,62.01,155.42-1.58,310.99-5.55,466.4-1.28,104.91,2.88,209.83,4.54,314.74,7.58,54.06,1.57,108.81,7.41,162.78-.82,42.49-6.48,83.93-24.31,125.89-37.77,46.77-15,93.01-36.71,140.26-45.6,65.77-12.37,127.63,16.62,192.86,18.77"/>
        <path class="cls-16" d="M0,199.83c67.24,3.84,129.86,46.43,193.1,87.34,61.5,39.79,120.82,68.1,185.89,66.22,158.68-4.59,317.71-18.04,476.39-10.7,104.87,4.85,209.74,10.88,314.6,16.35,53.99,2.81,108.81,9.82,162.7.85,41.55-6.91,81.87-25.67,122.78-40.28,45.43-16.22,90.25-39.18,136.27-48.61,31.94-6.54,64.12-8.17,96.04-.44,31.62,7.66,62.22,19.26,94.22,20.49"/>
        <path class="cls-2" d="M0,184.41c131.89,9.02,245.43,169.75,378.9,163.52,161.89-7.56,324.37-30.52,486.3-20.03,104.84,6.79,209.64,17.2,314.46,25.06,53.9,4.04,108.8,12.23,162.63,2.51,40.63-7.34,79.83-26.97,119.7-42.77,44.1-17.47,87.5-41.66,132.31-51.59,31.61-7.01,63.48-8.81,95.06-.51,31.12,8.18,61.07,20.46,92.63,21.85"/>
        <path class="cls-17" d="M0,169.38c132.4,10.5,244.62,181.86,378.8,173.34,165.03-10.47,330.95-42.93,496.08-29.25,104.83,8.69,209.52,23.47,314.32,33.66,53.82,5.24,108.81,14.61,162.57,4.13,39.73-7.74,77.83-28.21,116.65-45.22,42.78-18.75,84.75-44.11,128.4-54.53,31.28-7.47,62.85-9.45,94.11-.57,30.64,8.7,59.92,21.65,91.06,23.18"/>
        <path class="cls-49" d="M0,154.79c132.88,11.92,243.82,193.66,378.71,182.99,168.08-13.3,337.43-55.19,505.67-38.3,104.83,10.53,209.4,29.65,314.17,42.13,53.73,6.4,108.83,16.95,162.53,5.72,38.87-8.12,75.88-29.37,113.66-47.63,41.47-20.05,82.03-46.54,124.55-57.42,30.96-7.92,62.25-10.08,93.18-.63,30.17,9.22,58.78,22.83,89.52,24.5"/>
        <path class="cls-6" d="M0,140.67c133.35,13.26,243.02,205.1,378.6,192.41,171.02-16.01,343.78-67.24,515.03-47.14,104.85,12.31,209.26,35.73,314.02,50.43,53.64,7.53,108.86,19.23,162.5,7.26,38.04-8.48,73.98-30.43,110.74-49.98,40.19-21.37,79.34-48.92,120.78-60.23,30.64-8.36,61.69-10.71,92.29-.69,29.71,9.73,57.66,23.98,88.02,25.79"/>
        <path class="cls-37" d="M0,127.08c133.81,14.49,242.23,216.11,378.48,201.55,101.8-10.88,203.38-29.55,305.03-44.78,73.59-11.03,145.41-20.79,219.09-10.94,104.88,14.02,209.11,41.67,313.86,58.51,53.55,8.61,108.9,21.43,162.49,8.75,37.25-8.82,72.16-31.41,107.91-52.25,38.94-22.71,76.69-51.26,117.12-62.97,30.34-8.79,61.16-11.33,91.45-.73,29.28,10.24,56.55,25.11,86.56,27.04"/>
        <path class="cls-4" d="M0,114.05c134.27,15.6,241.42,226.64,378.36,210.37,103.9-12.35,207.53-33.9,311.23-51.38,74.56-12.57,146.96-23.77,221.63-12.63,104.92,15.64,208.94,47.45,313.7,66.35,53.46,9.64,108.96,23.54,162.5,10.16,36.5-9.12,70.41-32.26,105.17-54.45,37.72-24.07,74.1-53.53,113.57-65.61,30.04-9.2,60.67-11.92,90.67-.76,28.86,10.74,55.47,26.21,85.15,28.25"/>
        <path class="cls-20" d="M0,101.64c134.73,16.56,240.61,236.62,378.22,218.8,105.93-13.72,211.53-38.07,317.2-57.72,75.48-14.03,148.42-26.62,224.05-14.25,104.98,17.17,208.76,53.04,313.53,73.9,53.37,10.62,109.04,25.53,162.54,11.48,35.8-9.4,68.76-33.02,102.56-56.55,36.53-25.43,71.58-55.71,110.16-68.14,29.76-9.58,60.24-12.5,89.95-.78,28.47,11.23,54.41,27.28,83.8,29.41"/>
        <path class="cls-36" d="M0,89.9c135.19,17.36,239.78,246.01,378.07,226.82,107.88-14.97,215.34-42.05,322.89-63.76,76.34-15.41,149.79-29.33,226.31-15.79,105.04,18.6,208.57,58.41,313.34,81.12,53.29,11.55,109.15,27.4,162.61,12.72,35.14-9.65,67.22-33.66,100.06-58.54,35.39-26.81,69.13-57.81,106.89-70.54,29.5-9.94,59.87-13.05,89.3-.78,28.11,11.71,53.39,28.3,82.52,30.51"/>
        <path class="cls-1" d="M0,78.86c135.66,17.96,238.94,254.73,377.9,234.36,109.72-16.08,218.95-45.77,328.28-69.47,77.13-16.72,151.06-31.87,228.4-17.22,105.12,19.91,208.36,63.54,313.15,87.98,53.22,12.41,109.27,29.11,162.71,13.86,34.54-9.86,65.8-34.19,97.72-60.42,34.29-28.17,66.77-59.8,103.8-72.8,29.26-10.28,59.55-13.56,88.72-.77,27.77,12.18,52.41,29.29,81.31,31.56"/>
        <path class="cls-10" d="M0,68.57c136.14,18.36,238.08,262.73,377.72,241.38,111.45-17.04,222.34-49.28,333.33-74.82,77.84-17.91,152.22-34.21,230.3-18.56,105.2,21.09,208.14,68.39,312.95,94.44,53.16,13.21,109.42,30.65,162.85,14.88,33.95-10.02,64.55-34.47,95.53-62.16,33.19-29.67,64.55-61.68,100.89-74.91,29.03-10.57,59.31-14.04,88.24-.75,27.47,12.62,51.48,30.22,80.18,32.53"/>
        <path class="cls-35" d="M0,59.09c136.64,18.52,237.2,269.95,377.51,247.82,113.06-17.83,225.49-52.53,338.01-79.77,78.46-18.99,153.26-36.33,232-19.77,105.29,22.14,207.91,72.94,312.73,100.46,53.12,13.94,109.59,32,163.04,15.77,33.45-10.16,63.4-34.77,93.52-63.76,32.2-31,62.42-63.42,98.18-76.86,28.83-10.83,59.14-14.48,87.85-.7,27.2,13.05,50.6,31.1,79.14,33.44"/>
        <path class="cls-9" d="M0,50.45c137.15,18.43,236.3,276.33,377.29,253.65,114.53-18.42,228.37-55.49,342.3-84.3,78.98-19.97,154.17-38.21,233.47-20.87,105.38,23.05,207.66,77.17,312.5,106,53.11,14.6,109.79,33.15,163.26,16.54,33-10.25,62.39-34.95,91.69-65.21,31.27-32.29,60.43-65.02,95.7-78.62,28.66-11.06,59.05-14.87,87.57-.64,26.97,13.46,49.78,31.91,78.2,34.26"/>
        <path class="cls-22" d="M0,42.7c137.66,18.06,235.4,281.79,377.04,258.8,115.86-18.8,230.98-58.14,346.15-88.36,79.4-20.83,154.94-39.82,234.71-21.83,105.47,23.79,207.4,81.04,312.26,111.03,53.11,15.19,110.01,34.06,163.53,17.15,32.62-10.31,61.52-35.04,90.07-66.49,30.41-33.51,58.59-66.46,93.45-80.19,28.52-11.23,59.05-15.21,87.4-.55,26.77,13.84,49.03,32.67,77.37,35"/>
        <path class="cls-60" d="M0,35.89c138.18,17.38,234.48,286.28,376.78,263.24,117.04-18.95,233.28-60.46,349.55-91.92,79.72-21.57,155.57-41.14,235.69-22.64,105.55,24.37,207.12,84.53,312,115.51,53.15,15.7,110.26,34.73,163.85,17.61,32.28-10.31,60.83-35.01,88.67-67.6,29.63-34.68,56.93-67.74,91.46-81.55,28.41-11.36,59.13-15.49,87.35-.45,26.61,14.19,48.36,33.35,76.64,35.64"/>
        <path class="cls-53" d="M0,30.06c138.7,16.38,233.57,289.71,376.48,266.91,118.04-18.83,235.26-62.43,352.45-94.96,79.91-22.18,156.04-42.15,236.4-23.31,105.63,24.77,206.84,87.62,311.72,119.4,87.87,26.63,173.68,45.89,251.73-50.6,28.93-35.76,55.47-68.85,89.74-82.69,28.34-11.45,59.31-15.71,87.43-.31,26.49,14.5,47.76,33.96,76.04,36.19"/>
        <path class="cls-28" d="M0,25.25c139.2,15.02,232.68,292,376.16,269.76,118.87-18.43,236.9-64.02,354.82-97.43,79.98-22.66,156.34-42.82,236.82-23.81,105.71,24.97,206.55,90.26,311.43,122.67,86.78,26.81,174.75,48.17,251.24-51.2,28.31-36.77,54.24-69.78,88.32-83.59,28.31-11.48,59.58-15.86,87.64-.16,26.41,14.78,47.26,34.49,75.57,36.63"/>
        <path class="cls-56" d="M0,21.53c139.66,13.28,231.82,293.09,375.81,271.74,119.5-17.71,238.18-65.2,356.65-99.3,79.93-23.01,156.46-43.14,236.92-24.14,105.77,24.98,206.24,92.45,311.12,125.27,85.82,26.86,175.93,49.86,251.07-51.77,27.81-37.62,53.23-70.51,87.19-84.24,28.32-11.45,59.96-15.94,88,.03,26.38,15.02,46.85,34.93,75.23,36.95"/>
        <path class="cls-34" d="M0,18.92c140.06,11.15,231.02,292.87,375.43,272.81,119.92-16.65,239.09-65.97,357.88-100.54,79.74-23.21,156.38-43.09,236.7-24.28,105.81,24.77,205.93,94.14,310.79,127.17,84.98,26.77,177.25,51.02,251.25-52.31,27.44-38.32,52.47-71.03,86.4-84.63,28.39-11.38,60.44-15.94,88.51.24,26.39,15.21,46.55,35.29,75.03,37.16"/>
      </g>
    </g>
  </g>
</svg>